{"title":"Percy Jackson Sea of Monsters (2013) CamRip.flv","uid":8857805,"size":474789334,"categoryP":"video","categoryS":"movies","magnet":"?xt=urn:btih:3125b1d385bc82ca0d1bee6e0cf7b7ef729aa952&amp;dn=Percy+Jackson+Sea+of+Monsters+%282013%29+CamRip.flv&amp;tr=udp%3A%2F%2Ftracker.openbittorrent.com%3A80&amp;tr=udp%3A%2F%2Fopen.demonii.com%3A1337&amp;tr=udp%3A%2F%2Ftracker.coppersurfer.tk%3A6969&amp;tr=udp%3A%2F%2Fexodus.desync.com%3A6969","seeders":1,"leechers":0,"uploader":"globeplus","files":-1,"time":1377703383,"description":"Percy Jackson Sea of Monsters (2013) CamRip.flv\n\nFormat                                   : Flash Video\nFile size                                : 453 MiB\nDuration                                 : 1h 44mn\nOverall bit rate                         : 606 Kbps\nTagging application                      : Yet Another Metadata Injector for FLV - Version 1.9\n\nVideo\n\nFormat                                   : AVC\nFormat/Info                              : Advanced Video Codec\nFormat profile                           : &lt;a class=&quot;__cf_email__&quot; href=&quot;/cdn-cgi/l/email-protection&quot; data-cfemail=&quot;460e2f212e060a756876&quot;&gt;[email&amp;#160;protected]&lt;/a&gt;&lt;script cf-hash='f9e31' type=&quot;text/javascript&quot;&gt;\n/* &lt;![CDATA[ */!function(){try{var t=&quot;currentScript&quot;in document?document.currentScript:function(){for(var t=document.getElementsByTagName(&quot;script&quot;),e=t.length;e--;)if(t[e].getAttribute(&quot;cf-hash&quot;))return t[e]}();if(t&amp;&amp;t.previousSibling){var e,r,n,i,c=t.previousSibling,a=c.getAttribute(&quot;data-cfemail&quot;);if(a){for(e=&quot;&quot;,r=parseInt(a.substr(0,2),16),n=2;a.length-n;n+=2)i=parseInt(a.substr(n,2),16)^r,e+=String.fromCharCode(i);e=document.createTextNode(e),c.parentNode.replaceChild(e,c)}}}catch(u){}}();/* ]]&gt; */&lt;/script&gt;\nFormat settings, CABAC                   : Yes\nFormat settings, ReFrames                : 4 frames\nCodec ID                                 : 7\nDuration                                 : 1h 41mn\nBit rate                                 : 526 Kbps\nWidth                                    : 780 pixels\nHeight                                   : 352 pixels\nDisplay aspect ratio                     : 2.220\nFrame rate mode                          : Constant\nFrame rate                               : 29.970 fps\nColor space                              : YUV\nChroma subsampling                       : 4:2:0\nBit depth                                : 8 bits\nScan type                                : Progressive\nBits/(Pixel*Frame)                       : 0.064\nStream size                              : 380 MiB (84%)\nWriting library                          : x264 core 118\n\nAudio\n\nFormat                                   : AAC\nFormat/Info                              : Advanced Audio Codec\nFormat profile                           : LC\nCodec ID                                 : 10\nDuration                                 : 1h 44mn\nBit rate                                 : 94.5 Kbps\nChannel(s)                               : 2 channels\nChannel positions                        : Front: L R\nSampling rate                            : 48.0 KHz\nCompression mode                         : Lossy\nDelay relative to video                  : 33ms\nStream size                              : 70.6 MiB (16%)\n\n\nPlot\n\nAt Camp Half-Blood, Percy Jackson (Logan Lerman) meets his half-brother Tyson (Douglas Smith), who is a cyclops. The camp is later attacked by Luke Castellan (Jake Abel), who announces his plans to destroy Mount Olympus. Percy's mentor Chiron (Anthony Head) discovers that Luke has poisoned the magic tree responsible for the barrier that protects Camp Half-Blood, which Percy learns was created out of Thalia Grace (Paloma Kwiatkowski), daughter of Zeus, who was killed by a cyclops. Annabeth Chase (Alexandra Daddario) finds out that the Golden Fleece could restore the tree, and the camp's director, Dionysus (Stanley Tucci), sends Clarisse La Rue (Leven Rambin), daughter of Ares and Percy's rival, to find it. Percy then sets off with Annabeth, Tyson and Grover Underwood (Brandon T. Jackson) to locate the Golden Fleece on his own. Before they leave, the Oracle (Shohreh Aghdashloo) prophesies that a half-blood child of one of the three prime gods will fight Luke, and the half-blood will have the chance to either save Mount Olympus or destroy it. As Percy is the only known half-blood of the three prime gods (Tyson is not a half-blood because he is not half human), he assumes the prophecy must refer to him.\n\n\n\n\n\n+ enjoy ...\n","torrent":{"xt":"urn:btih:3125b1d385bc82ca0d1bee6e0cf7b7ef729aa952","amp;dn":"Percy+Jackson+Sea+of+Monsters+%282013%29+CamRip.flv","amp;tr":["udp%3A%2F%2Ftracker.openbittorrent.com%3A80","udp%3A%2F%2Fopen.demonii.com%3A1337","udp%3A%2F%2Ftracker.coppersurfer.tk%3A6969","udp%3A%2F%2Fexodus.desync.com%3A6969"],"infoHash":"3125b1d385bc82ca0d1bee6e0cf7b7ef729aa952","infoHashBuffer":{"type":"Buffer","data":[49,37,177,211,133,188,130,202,13,27,238,110,12,247,183,239,114,154,169,82]},"announce":[],"urlList":[]}}